<svg xmlns="http://www.w3.org/2000/svg" version="1.1" xmlns:xlink="http://www.w3.org/1999/xlink" xmlns:svgjs="http://svgjs.dev/svgjs" width="2000" height="2250" viewBox="0 0 2000 2250"><g transform="matrix(1,0,0,1,3.410605131648481e-13,0)"><svg viewBox="0 0 320 360" data-background-color="#000000" preserveAspectRatio="xMidYMid meet" height="2250" width="2000" xmlns="http://www.w3.org/2000/svg" xmlns:xlink="http://www.w3.org/1999/xlink"><g id="tight-bounds" transform="matrix(1,0,0,1,0,0)"><svg viewBox="0 0 320 360" height="360" width="320"><g><svg></svg></g><g><svg viewBox="0 0 320 360" height="360" width="320"><g><path xmlns="http://www.w3.org/2000/svg" d="M20.961 227.22l3.726 4.658-1.863-6.056c-0.466-2.795-3.726 0.466-1.863 1.398M25.153 224.425c1.397 2.329 2.795 4.658 2.795 6.987 0 3.261 2.795 4.658 5.123 5.589-3.261-3.726-5.124-13.974-7.918-12.576M204.017 26.929c7.918 0 15.371-0.932 23.756 0.931 20.495 5.124 37.729 15.371 49.374 29.811l32.606 52.169c1.397 13.042 4.192 27.482 3.726 43.319 3.261 0 2.795-4.658 6.521-5.59-3.726 9.316-5.59 20.961-6.521 34.469-2.329-7.453 0-18.632 0.466-24.687-3.261 5.124-5.124 1.397-5.124-0.932 0.466-3.726-1.397-3.261-2.795-4.658-5.124-4.658-8.384-9.782-12.11-17.7 2.329-6.055 2.795-14.905-4.658-19.563-2.329-1.397-5.124-3.726-6.521-7.453-1.863-5.124-5.124-11.179-4.193-19.097 0.466-2.329-6.987 5.124-11.179 1.863-18.166-12.576-36.332-27.016-58.224-39.127-11.645 0-20.029-4.192-24.221-9.316-3.726-4.658-0.932-10.713 4.658-11.179 3.261 0 6.987-0.932 9.782 0.932 0.466-1.863 2.329-4.192 4.657-4.192M157.904 16.215l0.932 0.466c4.658 0.932 6.987 7.453 12.11 5.124 0 3.261 0.466 6.521-0.466 8.85-1.397 3.726-5.59 3.726-8.85 3.726-31.208-1.863-49.374 11.179-68.471 22.358-5.124 3.261-10.713 5.59-14.906 9.782-20.029 18.632-41.921 35.866-47.045 70.335l-4.192 38.195c-0.466 4.192-5.124 8.384-4.192 13.508l3.26 22.824c-3.261-3.261-5.124 0.932-4.192 2.795 0.466 1.397 2.329 6.055 5.124 1.863 3.726 6.987 7.453 20.495 12.576 26.55 15.837 18.632 36.332 35.4 53.101 52.169 4.192-0.932 7.453-0.932 8.384-3.727 1.397 2.795-1.397 5.59-3.726 6.056 7.453 4.658 15.837 8.85 27.016 9.781 14.44 0.932 27.948 3.261 40.524 6.522 6.521-1.863 13.042-2.795 20.029-3.261 2.329 0 3.726-3.726 6.521-4.658l0.466-4.658c2.795 4.192 2.329-1.397 0.466-4.192 3.261 2.795 4.192 5.124 5.589 6.987 0-1.397 3.726-6.521 3.727-0.466l0.931-6.055c1.397-0.932 1.863 5.124 3.261 0.931 1.397-4.192 4.192-0.932 6.987-2.329-0.932 1.863-0.466 5.59 2.794 3.261l3.727-3.261c2.329 5.59 6.055 3.261 7.918 2.329 20.495-13.042 40.99-28.413 60.553-43.784l-0.466 6.055 2.329-7.453c2.329 2.329 4.192 0.466 5.124-0.931 2.795-4.658 6.521-9.316 12.577-13.508-7.453 20.029-16.303 35.866-27.482 48.908l-4.658 5.59c0 3.261-0.932 7.453-4.658 7.918-1.863 0.466-5.59-0.932-8.384 1.863-1.397 1.863 3.261 5.59-0.466 2.795-3.261-2.329-6.521 0-10.248 0.932-2.795 0.932 1.863 3.726 2.795 5.589 0.932 1.863 1.863 3.726 1.398 6.056l-5.124-5.59c-6.055 3.261-9.782 9.316-14.906 13.974-2.329 1.863-1.397 5.124-1.397 7.918-3.261 0-6.987-0.932-8.85 0.932-1.397 1.863-0.932 4.658-0.932 7.453-4.658-0.466-5.124-7.453-9.315-6.056-4.192 0.932-8.85 1.397-12.577 3.727 2.795 5.59-4.658 2.329-3.726 3.26-6.987-4.192-13.042-7.453-20.495-4.658-15.837-5.124-35.4-2.795-49.84-0.931 0-2.329 0.466-4.658-0.466-5.124-0.932 2.329-3.726 1.397-3.26 1.397-8.85-6.055-17.7-9.782-27.016-14.905-8.384 0.932-16.303-3.261-18.632-5.59-6.521-6.055-13.974-2.795-20.029-4.192-13.042-3.261-17.7-16.769-19.098-26.084-0.932-4.658-4.658-6.521-6.055-6.056-6.055-19.563-15.371-37.263-22.824-55.429-1.863-4.658-1.397-9.316-1.397-14.44 2.329 0.932 4.658 0.466 4.192-2.794-2.329-15.371-7.918-27.016-13.974-38.195 3.261-15.837 3.726-34.469 11.179-48.443 6.521-12.576 18.632-19.098 27.016-29.811 2.795-3.726 2.795-8.85 5.59-12.11 9.316-9.316 18.632-19.098 28.879-27.482 4.658-3.726 10.247 0 17.234-1.397 2.329-8.384 11.645-15.837 20.495-13.508 3.726 0.932 11.179-8.85 13.508-9.782 3.726-1.397 1.863 3.726 1.863 6.987 8.85-6.987 20.961-10.713 32.14-14.906" fill="#08fa18" fill-rule="nonzero" stroke="none" stroke-width="1" stroke-linecap="butt" stroke-linejoin="miter" stroke-miterlimit="10" stroke-dasharray="" stroke-dashoffset="0" font-family="none" font-weight="none" font-size="none" text-anchor="none" style="mix-blend-mode: normal" data-fill-palette-color="tertiary"></path></g><g transform="matrix(1,0,0,1,64.00000000000001,137.70344673731176)"><svg viewBox="0 0 191.99999999999997 84.59310652537646" height="84.59310652537646" width="191.99999999999997"><g><svg viewBox="0 0 191.99999999999997 84.59310652537646" height="84.59310652537646" width="191.99999999999997"><g><svg viewBox="0 0 192.00000000000003 84.59310652537647" height="84.59310652537646" width="191.99999999999997"><g transform="matrix(1,0,0,1,0,51.12963747908533)"><svg viewBox="0 0 192.00000000000003 33.46346904629113" height="33.46346904629113" width="192.00000000000003"><g id="textblocktransform"><svg viewBox="0 0 192.00000000000003 33.46346904629113" height="33.46346904629113" width="192.00000000000003" id="textblock"><g><svg viewBox="0 0 192.00000000000003 33.46346904629113" height="33.46346904629113" width="192.00000000000003"><g transform="matrix(1,0,0,1,0,0)"><svg width="192.00000000000003" viewBox="-13.850000381469727 -31.25 179.29000854492188 31.25" height="33.46346904629113" data-palette-color="#329e26"><path d="M10.3-8L13.25-8Q14.7-8 15.18-8.43 15.65-8.85 15.75-9.5L15.75-9.5 18.15-23.25 14.25-23.25 15.7-31.25 29.1-31.25 25.05-8.25Q24.35-4.2 22.08-2.1 19.8 0 16.25 0L16.25 0 8.85 0 10.3-8ZM7.75-2.4L7.35-0.15-13.85-2.4 7.75-2.4ZM14.65-12.05L14.25-9.8-6.95-12.05 14.65-12.05ZM15.5-16.85L15.1-14.6-6.1-16.85 15.5-16.85ZM16.35-21.65L15.95-19.4-5.25-21.65 16.35-21.65ZM13.2-26.45L12.85-24.2-8.35-26.45 13.2-26.45ZM8.6-7.25L8.2-5-13-7.25 8.6-7.25ZM14.15-31.25L13.75-29-7.4-31.25 14.15-31.25ZM63.35 0L54.6 0 54.4-4.05 48.1-4.05 46.55 0 37.9 0 49-26.45 61.4-26.45 63.35 0ZM50.75-11.2L54.4-11.2 54.4-18.8 53.7-18.8 50.75-11.2ZM37.25-2.4L36.3-0.2 15.8-2.4 37.25-2.4ZM39.3-7.25L38.35-5.05 17.85-7.25 39.3-7.25ZM41.3-12.05L40.4-9.85 19.9-12.05 41.3-12.05ZM43.35-16.85L42.4-14.65 21.95-16.85 43.35-16.85ZM45.35-21.65L44.45-19.45 24-21.65 45.35-21.65ZM47.35-26.45L46.45-24.3 26.05-26.45 47.35-26.45ZM98.84 0L90.44 0 91.99-9.15 86.39-9.15 84.79 0 76.39 0 80.99-26.45 89.44-26.45 87.79-17.3 93.44-17.3 95.04-26.45 103.5-26.45 98.84 0ZM75.14-2.4L74.74-0.15 53.54-2.4 75.14-2.4ZM76.84-12.05L76.44-9.8 55.24-12.05 76.84-12.05ZM77.69-16.85L77.29-14.6 56.09-16.85 77.69-16.85ZM78.54-21.65L78.14-19.4 56.94-21.65 78.54-21.65ZM79.34-26.45L78.99-24.2 57.79-26.45 79.34-26.45ZM75.99-7.25L75.59-5 54.39-7.25 75.99-7.25ZM123.74 0L114.99 0 119.59-26.45 128.39-26.45 123.74 0ZM113.74-2.4L113.34-0.15 92.14-2.4 113.74-2.4ZM115.44-12.05L115.04-9.8 93.84-12.05 115.44-12.05ZM116.29-16.85L115.89-14.6 94.69-16.85 116.29-16.85ZM117.14-21.65L116.74-19.4 95.54-21.65 117.14-21.65ZM117.94-26.45L117.59-24.2 96.39-26.45 117.94-26.45ZM114.59-7.25L114.19-5 92.99-7.25 114.59-7.25ZM144.04-26.45L155.29-26.45Q160.74-26.45 163.09-24.5 165.44-22.55 165.44-18.25L165.44-18.25Q165.44-16.2 164.89-13.2L164.89-13.2Q163.64-6.1 160.56-3.05 157.49 0 150.64 0L150.64 0 139.44 0 144.04-26.45ZM154.09-19.15L154.09-19.15 151.19-19.15 149.09-7.15 151.99-7.15Q153.44-7.15 154.22-7.53 154.99-7.9 155.19-9.05L155.19-9.05 156.64-17.3Q156.69-17.5 156.69-18.1L156.69-18.1Q156.69-19.15 154.09-19.15ZM138.19-2.4L137.79-0.15 116.59-2.4 138.19-2.4ZM139.89-12.05L139.49-9.8 118.29-12.05 139.89-12.05ZM140.74-16.85L140.34-14.6 119.14-16.85 140.74-16.85ZM141.59-21.65L141.19-19.4 119.99-21.65 141.59-21.65ZM142.39-26.45L142.04-24.2 120.84-26.45 142.39-26.45ZM139.04-7.25L138.64-5 117.44-7.25 139.04-7.25Z" opacity="1" transform="matrix(1,0,0,1,0,0)" fill="#329e26" class="wordmark-text-0" data-fill-palette-color="primary" id="text-0"></path></svg></g></svg></g></svg></g></svg></g><g transform="matrix(1,0,0,1,59.00278862242054,0)"><svg viewBox="0 0 73.99442275515895 46.246514221974344" height="46.246514221974344" width="73.99442275515895"><g><svg xmlns="http://www.w3.org/2000/svg" data-name="Layer 1" viewBox="0 24 128 80" x="0" y="0" height="46.246514221974344" width="73.99442275515895" class="icon-icon-0" data-fill-palette-color="accent" id="icon-0"><path d="M122 24H6a6.007 6.007 0 0 0-6 6V98a6.007 6.007 0 0 0 6 6H122a6.007 6.007 0 0 0 6-6V30A6.007 6.007 0 0 0 122 24Zm2 74a2.002 2.002 0 0 1-2 2H6a2.002 2.002 0 0 1-2-2V30a2.002 2.002 0 0 1 2-2H122a2.002 2.002 0 0 1 2 2Z" fill="#085e1f" data-fill-palette-color="accent"></path><path d="M114 73H58a2 2 0 0 0 0 4h56a2 2 0 0 0 0-4Z" fill="#085e1f" data-fill-palette-color="accent"></path><path d="M114 81H58a2 2 0 0 0 0 4h56a2 2 0 0 0 0-4Z" fill="#085e1f" data-fill-palette-color="accent"></path><path d="M44 90H16a2 2 0 0 0 0 4H44a2 2 0 0 0 0-4Z" fill="#085e1f" data-fill-palette-color="accent"></path><path d="M24.819 66.487l-1.816 12.009a2.001 2.001 0 0 0 0.692 1.831l4 3.357a2 2 0 0 0 2.54 0.025l4-3.222a1.999 1.999 0 0 0 0.726-1.839L33.247 66.589a14.927 14.927 0 0 1-3.961 0.56L30.841 78.085l-1.834 1.478L27.126 77.984 28.767 67.128A14.947 14.947 0 0 1 24.819 66.487Z" fill="#085e1f" data-fill-palette-color="accent"></path><path d="M21.237 65.151h0.542a15.102 15.102 0 0 1-4.144-3.497C12.46 63.142 8.981 67.839 8.981 73.908v9.243a2 2 0 1 0 4 0V73.908C12.981 68.752 16.376 65.151 21.237 65.151Z" fill="#085e1f" data-fill-palette-color="accent"></path><path d="M40.72 61.777a15.1 15.1 0 0 1-4.038 3.374h0.042c4.861 0 8.257 3.601 8.257 8.757v9.243a2 2 0 0 0 4 0V73.908C48.981 67.994 45.676 63.386 40.72 61.777Z" fill="#085e1f" data-fill-palette-color="accent"></path><path d="M28.981 63.151a11 11 0 1 0-11-11A10.999 10.999 0 0 0 28.981 63.151Zm0-18a7 7 0 1 1-7 7A7.008 7.008 0 0 1 28.981 45.151Z" fill="#085e1f" data-fill-palette-color="accent"></path><path d="M114 42H58a2 2 0 0 0-2 2V64a2 2 0 0 0 2 2h56a2 2 0 0 0 2-2V44A2 2 0 0 0 114 42Zm-2 20H60V46h52Z" fill="#085e1f" data-fill-palette-color="accent"></path><path d="M64 58a2 2 0 0 0 2 2h4a2 2 0 0 0 0-4V52a2 2 0 0 0 0-4H66a2 2 0 0 0 0 4v4A2 2 0 0 0 64 58Z" fill="#085e1f" data-fill-palette-color="accent"></path></svg></g></svg></g><g></g></svg></g></svg></g></svg></g></svg></g><defs></defs></svg><rect width="320" height="360" fill="none" stroke="none" visibility="hidden"></rect></g></svg></g></svg>